<svg xmlns="http://www.w3.org/2000/svg" viewBox="0 0 275.55 275.55"><defs><style>.cls-1{fill:#fff;stroke:#000;stroke-miterlimit:10;stroke-width:2px;}</style></defs><g id="Layer_2" data-name="Layer 2"><g id="Layer_1-2" data-name="Layer 1"><g id="single_estate" data-name="single estate"><circle class="cls-1" cx="137.77" cy="137.77" r="136.77"/><circle class="cls-1" cx="136.11" cy="138.24" r="95.79" transform="translate(-57.89 136.73) rotate(-45)"/><path d="M48.42,204.16a9.47,9.47,0,0,0-1.52-6c-1.4-2.13-3.22-2.77-4.65-1.82a2.69,2.69,0,0,0-.83,3.78c.41.84.72,1.51,1.19,2.48,1.56,3.25.68,6.13-1.81,7.77-3,2-6.4,1.28-8.75-2.28a12.09,12.09,0,0,1-1.9-6.77l3.11,0a9.65,9.65,0,0,0,1.48,5.13c1.06,1.6,2.73,2.34,4.38,1.25,1-.64,1.47-2,.58-3.9-.23-.51-.57-1.22-1-2.11-1.74-3.47-.51-6.44,1.84-8,3.16-2.09,6.56-1,9,2.74a11.56,11.56,0,0,1,2,8.15Z"/><path d="M31.05,181.08l3.32,7.47,8.24-3.67,1.28,2.87L25,196.14l-1.28-2.86,8.09-3.6-3.33-7.47-8.08,3.59-1.27-2.86L38,174.55l1.27,2.86Z"/><path d="M16.76,177.15,16,173.92l13.61-6.38v-.06l-15.2-.69-.49-2.21,13.45-7.12,0-.05-15,0-.72-3.23,21.28.52.57,2.55-13.66,7.1,0,.06,15.38.59.57,2.55Z"/><path d="M27.08,138.08l.29,7.83L32,147.33l.12,3.31-20.91-6.75-.09-2.61L31.51,133l.12,3.3Zm-2.75,1-8.9,3.31v.06l9.12,2.65Z"/><path d="M23.63,128.6l-12.68,5,.31-3.29,9.54-3.5-8.72-5.22.31-3.29,11.52,7.32,8.46.8-.28,3Z"/><path d="M13.25,113.5l.75-2.86,16.55-5.32,0-.06-14.2-3.71.79-3,20,5.22-.75,2.86-16.56,5.33v0L34,115.69l-.8,3Z"/><path d="M31.08,89.08l3.07-6.67L38,84.17a7.41,7.41,0,0,1-2.49,14.08c-1.39.1-2,0-6.55-2s-5-2.54-5.78-3.65a7.34,7.34,0,0,1-.67-7.43,7.27,7.27,0,0,1,8.59-4l-1.39,3a4.2,4.2,0,0,0-4.36,2.34,4,4,0,0,0,0,3.53c.61,1.17,1,1.63,4.89,3.4s4.47,1.8,5.75,1.5a4,4,0,0,0,2.71-2.27,4.2,4.2,0,0,0-2.21-5.68l-1-.45-1.75,3.82Z"/><path d="M28.11,73.59,30,70.9l13.81,5.93,0,0L34.31,65l1.32-1.84,14.25,5.32,0,0-10-11.2,1.93-2.69L55.58,70.76l-1.53,2.12L39.67,67.4l0,0,9.78,11.89-1.53,2.12Z"/><path d="M64.16,55.33l-5.65,5.42,2,4.43-2.39,2.29L49.3,47.36l1.89-1.81,19.7,9.73L68.5,57.56ZM61.59,54l-8.4-4.45,0,0,4.08,8.58Z"/><path d="M69,46.47,56.78,40.32l2.67-2,8.94,4.81-1.87-10,2.67-2,2.16,13.47,5,6.87L74,53.33Z"/><path d="M112,13.5l3.28-.37,4.87,14.22h0l2.34-15,2.25-.26,5.61,14.14h.06l1.6-14.95,3.28-.37L132.5,32l-2.59.29-5.58-14.35h-.06L122,33.15l-2.59.3Z"/><path d="M151.85,23.82l-8.15-.71-.78,9-3.12-.27,1.79-20.57,3.12.28-.77,8.81,8.15.71.77-8.82,3.12.28-1.8,20.57-3.12-.28Z"/><path d="M162.81,17.34a7.48,7.48,0,0,1,12.5,3.3c.34,1.35.41,2-.86,6.79s-1.64,5.32-2.6,6.33a7.48,7.48,0,0,1-12.5-3.3c-.34-1.35-.41-2,.86-6.79S161.85,18.35,162.81,17.34Zm-.06,13.06A4.13,4.13,0,0,0,168.92,32c1.05-.81,1.42-1.31,2.5-5.4s1-4.71.49-5.93a4.13,4.13,0,0,0-6.17-1.63c-1.05.81-1.42,1.31-2.5,5.4S162.23,29.19,162.75,30.4Z"/><path d="M183.46,19.8l2.86,1.27-7.16,16.18,9.2,4.07L187.16,44,175.1,38.68Z"/><path d="M200.59,28l11.16,7-1.58,2.5-8.51-5.37-3.14,5,7.26,4.58-1.48,2.35L197,39.52l-3.24,5.12L202.31,50l-1.57,2.5-11.16-7Z"/><path d="M223.05,44.3l2.22,2.22L212.77,59l7.12,7.11-2.09,2.09-9.34-9.32Z"/><path d="M236.16,58.18,244,68.8l-2.39,1.75-6-8.1-4.74,3.49L236,72.86l-2.24,1.65-5.1-6.92-4.88,3.6,6,8.1-2.38,1.76-7.83-10.63Z"/><path d="M237.72,90.73l-3.58-7-4.83.69-1.52-2.93,21.79-2.79,1.2,2.32L235.87,97.2l-1.51-2.94Zm2.06-2.08,6.65-6.78,0-.06L237,83.29Z"/><path d="M256,92.68l4.16,12.53-2.8.93-3.18-9.55-5.78,1.92,2.71,8.15-2.64.88-2.71-8.15-8.37,2.78-1-3Z"/><path d="M248.07,151a9.49,9.49,0,0,0-3,5.42c-.43,2.52.45,4.23,2.14,4.51a2.68,2.68,0,0,0,3.19-2.18c.28-.9.51-1.59.84-2.63,1.08-3.43,3.69-4.92,6.64-4.42,3.48.59,5.52,3.44,4.81,7.64a12.11,12.11,0,0,1-3.25,6.25l-2.25-2.15a9.56,9.56,0,0,0,2.43-4.77c.33-1.88-.39-3.56-2.33-3.9-1.14-.19-2.43.44-3.09,2.45-.18.53-.43,1.28-.71,2.23-1.11,3.72-4,5-6.81,4.57-3.75-.64-5.44-3.78-4.7-8.15a11.6,11.6,0,0,1,4.13-7.3Z"/><path d="M259.68,172l-.88,3L239,169.18l.88-3Z"/><path d="M256.79,181.68l-1.19,2.71L238.41,187l0,.05,13.44,5.9-1.26,2.87-18.91-8.3,1.19-2.71L250,182.2l0-.06-13.44-5.9,1.26-2.86Z"/><path d="M235.31,203l-4.11,6.07-3.48-2.36a7.41,7.41,0,0,1,4.75-13.48c1.38.13,2,.28,6.13,3.06s4.47,3.31,5.11,4.55a7.41,7.41,0,0,1-9.69,10l1.86-2.74a4.18,4.18,0,0,0,4.68-1.59,4,4,0,0,0,.54-3.49c-.41-1.26-.76-1.77-4.26-4.15s-4.12-2.5-5.44-2.42a4,4,0,0,0-3,1.8,4.18,4.18,0,0,0,1.25,6l.89.6,2.35-3.48Z"/><path d="M234.75,219.5l-2.12,2.3-13-12-6.81,7.4-2.18-2,8.93-9.71Z"/><path d="M221.41,233.16l-10.3,8.25-1.85-2.31,7.85-6.29-3.68-4.6-6.7,5.37L205,231.4,211.7,226l-3.79-4.73-7.86,6.29-1.85-2.31L208.51,217Z"/><path d="M198.73,249.07l-11.86,5.79-1.3-2.65,9-4.42L192,242.5l-7.71,3.77-1.22-2.5,7.71-3.77-2.67-5.45-9,4.42-1.3-2.65,11.86-5.8Z"/><path d="M176.4,242.15a9.53,9.53,0,0,0-6.21-.23c-2.43.76-3.56,2.33-3.05,4a2.7,2.7,0,0,0,3.41,1.86c.92-.17,1.64-.27,2.71-.46,3.55-.59,6.07,1.06,7,3.91,1.05,3.38-.56,6.49-4.63,7.76a12.09,12.09,0,0,1-7-.06l.89-3a9.64,9.64,0,0,0,5.35,0c1.82-.57,3-2,2.41-3.85-.35-1.11-1.49-2-3.58-1.65-.55.08-1.34.2-2.31.38-3.82.71-6.33-1.3-7.17-4-1.13-3.62.9-6.56,5.14-7.88a11.54,11.54,0,0,1,8.37.36Z"/><path d="M158.59,260l5.59-.89.43,2.75-14.26,2.26-.43-2.75,5.58-.88-2.8-17.64,3.1-.49Z"/><path d="M136.63,248.61l7.83-.21,1.47-4.65,3.3-.08-7,20.84-2.61.07-8.06-20.45,3.31-.09Zm1,2.76,3.22,8.94h.06l2.75-9.1Z"/><path d="M126.23,261.29l5.62.59-.29,2.77-14.37-1.51.3-2.77,5.62.59L125,243.19l3.12.33Z"/><path d="M112.21,262.15,99.42,258.9l.73-2.87,9.75,2.48,1.45-5.71L103,250.69l.69-2.7L112,250.1l1.49-5.87-9.75-2.48.73-2.87,12.79,3.26Z"/><path d="M200,128.87c-.38,2.31-.71,4.62-1.14,6.92A36.28,36.28,0,0,1,192,150.73a40.45,40.45,0,0,1-18.41,13.75,35.57,35.57,0,0,1-16.5,2.3c-12.53-1.29-22.92-6.69-30.18-17.19-2.18-3.16-3.64-6.82-5.33-10.29-.66-1.35-.4-1.63,1.13-1.71,6.94-.37,12.59-3.53,17.59-8.1a25.93,25.93,0,0,0,2.4-2.72c1-1.21.79-1.92-.54-2.71a25.69,25.69,0,0,1-8.05-7.09c-2.53-3.55-2.47-7.85.12-10.9a5.57,5.57,0,0,1,5.29-2.07c1.26.17,2.5.42,3.73.7,2,.44,2.56-.11,1.86-2a24.91,24.91,0,0,0-6.48-9.66l-1.34.84c2.14,2.86,5.08,5.07,5.9,9a10,10,0,0,1-1.4-.2,8.29,8.29,0,0,0-11.06,7.72,11.91,11.91,0,0,0,4.81,10.38c1.63,1.32,3.39,2.51,5,3.82a2.17,2.17,0,0,1,.84,1.41c0,.32-.69.82-1.15.93a15.06,15.06,0,0,1-4.11.69c-4.74-.21-9.32-1.12-13.33-3.91-.26-.17-.49-.39-.76-.57-1-.68-1.22-1.37-.31-2.39a15.14,15.14,0,0,0,1.44-2.43c-2-1.15-3.81-2.23-5.64-3.35a15.38,15.38,0,0,1-5.14-4.18c2.19-1.46,4.32-2.8,6.37-4.26,4.6-3.26,9.27-6.45,13.72-9.91,7.31-5.69,15.32-9.51,24.67-10.16a1.64,1.64,0,0,0,.48-.2h4.61c.3.08.59.18.88.24,3.13.66,6.33,1.07,9.37,2a37.55,37.55,0,0,1,15.47,9.65,39.16,39.16,0,0,1,11,20.52c.39,2,.67,4.09,1,6.13Zm-25.52,22.26c.5,1.23,1,2.49,1.51,3.7.93,2.07,1.91,4.11,2.88,6.16l.33-.16c-1.07-2.3-2.13-4.61-3.23-6.89-.46-1-1-1.86-1.51-2.79a9.07,9.07,0,0,0-.36-1.26c-1.13-2.45-2.3-4.88-3.42-7.34-.79-1.73-.69-2,1.11-2.71a11.21,11.21,0,0,0,6.23-5.12c1.56-3,2.47-6.17.92-9.46-2-4.33-6-5.34-10.23-4.25a4.25,4.25,0,0,0-1.22.86l.07.44a16.83,16.83,0,0,0,1.85.27c2.45.1,5.17-.37,6.63,2.29a10.24,10.24,0,0,1,1.15,3.95c.25,2.59-1.14,4.61-2.63,6.61a9.63,9.63,0,0,1-12.46,2.63c0-.14.1-.35,0-.48-.25-.47-.55-.92-.83-1.37-.39.43-1,.82-1.12,1.3a2,2,0,0,0,1.51,2.41,15.5,15.5,0,0,0,5.39.91c2.12-.23,2.89.73,3.49,2.35.05.12.08.26.14.38Q172.56,147.34,174.45,151.13ZM156.59,86.79c.09.54.07.66.12.71.72.81,1.45,1.61,2.16,2.43,4.88,5.6,5.85,11.88,3.18,18.76a1.58,1.58,0,0,0,.19,1.7,9.52,9.52,0,0,1,1.28,2.92,9.72,9.72,0,0,1-.52,5.58,3.89,3.89,0,0,0,.1,1.42,1.64,1.64,0,0,0,1-.71,9.13,9.13,0,0,0,0-8.82,3.1,3.1,0,0,1-.36-2.25,16.47,16.47,0,0,0,1.13-7.83c-.51-5.08-2.15-9.69-6.3-13A9.44,9.44,0,0,0,156.59,86.79Zm6.92.51A17.34,17.34,0,0,1,168,97.64c.17,2.54-.13,5.11-.16,7.67a4.79,4.79,0,0,0,.43,1.4,4.89,4.89,0,0,0,1.17-.85,3.17,3.17,0,0,0,.49-1.39,22,22,0,0,0-3.65-16.06A2.62,2.62,0,0,0,163.51,87.3Zm6.14,1c.73,1.58,1.54,3.09,2.14,4.68a19.37,19.37,0,0,1,.72,10.16c-.07.45.34,1,.53,1.47.39-.31,1-.54,1.13-.94a13.47,13.47,0,0,0,.6-3c.26-3-.66-5.73-1.63-8.44C172.53,90.51,172.12,88.45,169.65,88.33Zm-21.71,34.36a.32.32,0,0,0-.14,0l-2,.71a12.14,12.14,0,0,1,1.78.53c.73.34,1.73.64,2,1.24s-.1,1.58-.35,2.35c-.13.38-.68.6-.9,1a5.46,5.46,0,0,0-.4,1.26c.47,0,1,.21,1.37,0a5.05,5.05,0,0,0,2.44-4.65C151.41,123.52,150.13,122.7,147.94,122.69Zm-.38-10.32c.23-.14.68-.27.87-.56.73-1.13.1-3.81-1-4.53-.22-.15-.76-.23-.82-.13a1.33,1.33,0,0,0-.18.95C146.73,109.47,147.13,110.82,147.56,112.37ZM153.4,106l-5-.66c0,1.21.51,1.64,2.53,2C152.05,107.53,153,107.49,153.4,106Zm-25.51,11a3.76,3.76,0,0,0-4.8-2.33C124.63,115.59,125.68,117.2,127.89,117Z"/><path d="M66.76,149.24c2.77-.09,5.13,1.32,7.67,2.08s4.91,1.5,7.41,2.27c-.32-3-.48-5.8-1-8.58s-1.25-5.48-1.92-8.3c2.05-.25,3,1.21,4.27,2.29,0-.2.07-.34,0-.43-1-2.12-.87-2.27,1.47-2.28h23.39l-3.24,8c1.72-1.41,3.38-2.9,6.1-2.44a9.44,9.44,0,0,1-.62,1.78c-2.75,4.42-2.62,9.15-1.25,13.87a43.32,43.32,0,0,0,3.21,7.57,14.74,14.74,0,0,0,5.78,5.78,2.63,2.63,0,0,1,1.44,2.71q-.21,7.46-.23,14.92c0,1.22-.54,1.58-1.56,1.25a14.86,14.86,0,0,1-3.22-1.37q-6.7-4.22-13.33-8.58c-4.07-2.68-8.16-5.33-12.12-8.16a69.43,69.43,0,0,1-6.07-5.2c-.31-.28-.25-.95-.44-1.4a3.18,3.18,0,0,0-.65-.9c-1.54-1.57-3.13-3.09-4.63-4.71-.39-.42-.45-1.13-.74-1.66a2.5,2.5,0,0,0-.84-.87c-1.68-1-3.48-1.77-5-2.9a39.18,39.18,0,0,1-3.9-3.63ZM86.25,146l-.48.09c.82,2.79,1.61,5.59,2.51,8.36.11.34.75.58,1.19.71,1.81.55,3.66,1,5.47,1.55,1.48.46,2.93,1,4.45,1.59l1.53-7.52c-.71.22-1.48.53-1.62,1a1.71,1.71,0,0,1-1.87,1.34c-1.8,0-3.61,0-5.41-.07-.77,0-1.51-.18-1.52-1.31,0-.35-.57-.84-1-1-1.24-.52-2.28-1.13-2.59-2.59A20.61,20.61,0,0,0,86.25,146Z"/></g></g></g></svg>