<svg xmlns="http://www.w3.org/2000/svg" viewBox="0 0 275.55 275.55"><defs><style>.cls-1{fill:#fff;stroke:#000;stroke-miterlimit:10;stroke-width:2px;}</style></defs><g id="Layer_2" data-name="Layer 2"><g id="Layer_1-2" data-name="Layer 1"><g id="source_d_espoir" data-name="source d&apos;espoir"><circle class="cls-1" cx="137.77" cy="137.77" r="136.77"/><circle class="cls-1" cx="136.11" cy="138.24" r="95.79" transform="translate(-57.89 136.73) rotate(-45)"/><path d="M28.49,158.53a9.58,9.58,0,0,0,1.26-6.08c-.33-2.53-1.69-3.9-3.38-3.67a2.7,2.7,0,0,0-2.41,3c0,.93,0,1.67,0,2.75,0,3.6-2.06,5.81-5,6.2-3.5.47-6.3-1.65-6.86-5.87A12.09,12.09,0,0,1,13.3,148l2.79,1.39a9.65,9.65,0,0,0-.91,5.27c.25,1.89,1.43,3.29,3.39,3,1.15-.16,2.19-1.14,2.23-3.25,0-.56,0-1.35,0-2.35,0-3.88,2.36-6,5.14-6.39,3.77-.5,6.33,2,6.91,6.4a11.57,11.57,0,0,1-1.77,8.19Z"/><path d="M22.94,130.17l-.27,8.18,9,.3-.1,3.13-20.64-.69L11,138l8.84.3.28-8.18-8.85-.29.11-3.14,20.64.69-.1,3.14Z"/><path d="M11.8,120.4l.76-3.22,15,.21v-.06l-13.36-7.26.51-2.21L30,107.34v-.06l-13.54-6.53.76-3.22,18.92,9.76-.6,2.55-15.39.42v.06l13.57,7.25-.59,2.54Z"/><path d="M38.15,89.77,35,96.93l3.58,3.32-1.33,3L21.37,88.08l1.05-2.39,21.92,1.45-1.33,3Zm-2.91-.3-9.46-.9,0,.05L32.81,95Z"/><path d="M39.19,79.72l-13.62-1,1.72-2.83,10.11,1L31.84,68.4l1.72-2.82L40.72,77.2,48,81.61l-1.54,2.53Z"/><path d="M36.44,61.61l1.92-2.25L55.58,61.8l0,0L44.47,52.22l2-2.38L62.19,63.26l-1.92,2.25L43.05,63.07l0,0,11.15,9.54-2,2.38Z"/><path d="M63.14,47.42l5.67-4.65L71.48,46A7.41,7.41,0,0,1,63.1,57.6c-1.29-.52-1.86-.84-5-4.68s-3.35-4.45-3.61-5.81a7.41,7.41,0,0,1,12.13-6.85l-2.56,2.1a4.15,4.15,0,0,0-4.94.2,4,4,0,0,0-1.51,3.19c0,1.32.22,1.91,2.91,5.19S63.75,54.51,65,54.8a4,4,0,0,0,3.42-.86A4.18,4.18,0,0,0,69,47.87L68.27,47,65,49.71Z"/><path d="M67.24,32.19l2.91-1.57L80,42l0,0L76.58,27.14l2-1.07,10.5,11,.05,0L85,22.59,87.9,21l5.28,20.62-2.29,1.24L80.34,31.67l0,0,3.61,15L81.6,47.9Z"/><path d="M107.64,31.52l-7.45,2.4-.1,4.87-3.15,1,.82-22,2.48-.8L113.72,34.4l-3.15,1Zm-1.71-2.38-5.6-7.67-.06,0-.08,9.5Z"/><path d="M115.83,25.64l-8.27-10.85,3.26-.59,5.94,8.23,2.67-9.79,3.26-.59-4,13.06,1.51,8.36-2.91.53Z"/><path d="M165.6,30.45a9.58,9.58,0,0,0,5,3.73c2.43.77,4.25.12,4.76-1.51a2.68,2.68,0,0,0-1.73-3.46c-.85-.39-1.5-.72-2.48-1.19-3.26-1.54-4.38-4.33-3.48-7.18,1.06-3.37,4.17-5,8.23-3.72a12.11,12.11,0,0,1,5.74,4.06l-2.43,1.94a9.64,9.64,0,0,0-4.39-3.06c-1.83-.58-3.59-.1-4.18,1.78-.35,1.11.1,2.47,2,3.4.5.25,1.22.6,2.12,1,3.54,1.61,4.45,4.7,3.6,7.38-1.14,3.62-4.49,4.87-8.72,3.54a11.59,11.59,0,0,1-6.67-5.09Z"/><path d="M187.32,25.21A7.49,7.49,0,0,1,198.87,31c0,1.39,0,2-2.25,6.47s-2.71,4.86-3.85,5.65a7.49,7.49,0,0,1-11.55-5.81c-.05-1.39,0-2,2.25-6.47S186.18,26,187.32,25.21ZM184.56,38a4.14,4.14,0,0,0,5.7,2.87c1.2-.57,1.66-1,3.57-4.76s1.95-4.41,1.7-5.7a4.13,4.13,0,0,0-5.7-2.87c-1.2.57-1.66,1-3.57,4.76S184.31,36.68,184.56,38Z"/><path d="M206.86,31.69l2.52,1.86-7.89,10.72a4.21,4.21,0,1,0,6.77,5l7.89-10.72,2.53,1.86-8.1,11a7.34,7.34,0,0,1-11.82-8.7Z"/><path d="M224.1,45.21l5.59,5.8a6,6,0,0,1,1.94,4,5.78,5.78,0,0,1-1.74,4.54A5.84,5.84,0,0,1,223,60.61l-3.27,9.8-2.58-2.67,3.39-9.18-2.78-2.88-6.34,6.12-2.18-2.26Zm-4.34,8.53L223,57.15a3.21,3.21,0,0,0,4.8.25,2.81,2.81,0,0,0,1-2.39,3.47,3.47,0,0,0-1.13-2.09l-3.4-3.52Z"/><path d="M233.83,80.53a7.11,7.11,0,0,1-9-2.54,7.34,7.34,0,0,1-.66-7.43c.62-1.24,1-1.78,5.05-4.62s4.69-3,6.07-3.15a7.41,7.41,0,0,1,5.89,12.62l-1.9-2.71a4.16,4.16,0,0,0,.19-4.94A4,4,0,0,0,236.38,66c-1.32-.07-1.93.07-5.4,2.5s-3.81,2.94-4.2,4.21a4,4,0,0,0,.59,3.48,4.24,4.24,0,0,0,4.56,1.62Z"/><path d="M248.53,76.54l5.86,11.82-2.65,1.32-4.47-9L242,83.28,245.81,91l-2.49,1.24-3.82-7.69-5.43,2.7,4.48,9-2.65,1.32L230,85.72Z"/><path d="M259.35,102.22l1.66,7a7,7,0,0,1-1.95,6.93c-1.46,1.38-2.2,1.65-6.41,2.64-4.51,1.07-5.36,1-7,.45a7.33,7.33,0,0,1-4.81-5.48L239.25,107Zm-16.5,7.1.86,3.64a4.29,4.29,0,0,0,2.62,3.32c1.18.43,1.76.39,5.49-.49s4.47-1.14,5.38-2.22a4,4,0,0,0,.85-4l-.86-3.64Z"/><path d="M263.36,122.39l.32,2.94-2.94.33L258.28,123Z"/><path d="M264.29,131.78l0,13.2h-3l0-10.06h-5.88v8.59h-2.78l0-8.58H246.6l0,10.06h-3l0-13.19Z"/><path d="M248.28,148.83a9.55,9.55,0,0,0-2.92,5.48c-.38,2.52.53,4.22,2.22,4.47a2.69,2.69,0,0,0,3.16-2.24c.26-.9.48-1.6.79-2.64,1-3.45,3.6-5,6.55-4.54,3.5.53,5.59,3.34,4.95,7.56a12,12,0,0,1-3.13,6.29l-2.29-2.11a9.61,9.61,0,0,0,2.35-4.8c.29-1.89-.46-3.56-2.41-3.86-1.14-.17-2.42.48-3.05,2.5-.16.53-.4,1.29-.66,2.25-1,3.74-4,5.11-6.73,4.69-3.75-.57-5.51-3.69-4.84-8.07a11.58,11.58,0,0,1,4-7.37Z"/><path d="M260.25,170.3,258,177.43a6.72,6.72,0,0,1-2.79,4,6.12,6.12,0,0,1-5.37.63,6.23,6.23,0,0,1-3.95-8l1.44-4.53L239.63,167l1-3Zm-10.12.07-1.41,4.42a3.28,3.28,0,0,0,2.13,4.3,3.05,3.05,0,0,0,3-.44,3.6,3.6,0,0,0,1.23-2l1.37-4.31Z"/><path d="M250.26,188.12a7.49,7.49,0,0,1-5.86,11.53c-1.39,0-2,0-6.46-2.28s-4.85-2.73-5.64-3.88A7.5,7.5,0,0,1,238.17,182c1.39,0,2,0,6.45,2.28S249.48,187,250.26,188.12Zm-12.75-2.81a4.12,4.12,0,0,0-2.89,5.68c.56,1.2,1,1.67,4.74,3.59s4.4,2,5.7,1.73a4.13,4.13,0,0,0,2.89-5.69c-.56-1.2-1-1.67-4.75-3.59S238.81,185.06,237.51,185.31Z"/><path d="M243.76,207.14l-1.74,2.6-17.16-11.48,1.74-2.6Z"/><path d="M238.13,215.38l-5.25,6.11a6,6,0,0,1-3.77,2.31,5.81,5.81,0,0,1-4.69-1.31,5.87,5.87,0,0,1-1.73-6.76l-10.07-2.33,2.42-2.82,9.47,2.51,2.6-3-6.69-5.74,2-2.38Zm-8.91-3.52-3.07,3.59a3.2,3.2,0,0,0,.2,4.8,2.81,2.81,0,0,0,2.46.73,3.47,3.47,0,0,0,2-1.32l3.19-3.72Z"/></g></g></g></svg>