<svg xmlns="http://www.w3.org/2000/svg" viewBox="0 0 87.6 80.73"><g><path d="M87.6,42.64c-.37,2.31-.7,4.62-1.13,6.92A36.41,36.41,0,0,1,79.59,64.5,40.42,40.42,0,0,1,61.18,78.24a35.47,35.47,0,0,1-16.51,2.31C32.14,79.26,21.76,73.86,14.5,63.36c-2.18-3.16-3.64-6.82-5.34-10.29-.65-1.35-.4-1.63,1.13-1.71,6.94-.37,12.6-3.53,17.59-8.1a26,26,0,0,0,2.41-2.72c1-1.21.78-1.92-.54-2.71a25.61,25.61,0,0,1-8.06-7.09c-2.52-3.55-2.47-7.85.12-10.9a5.58,5.58,0,0,1,5.3-2.07c1.25.17,2.5.42,3.73.7,1.94.44,2.56-.11,1.86-2a25.13,25.13,0,0,0-6.48-9.66l-1.35.84C27,10.52,30,12.73,30.77,16.6a8.82,8.82,0,0,1-1.39-.19,8.29,8.29,0,0,0-11.06,7.72,11.91,11.91,0,0,0,4.81,10.38c1.63,1.32,3.38,2.5,5,3.82A2.13,2.13,0,0,1,29,39.74c0,.32-.69.82-1.15.93a14.93,14.93,0,0,1-4.1.69c-4.74-.21-9.33-1.12-13.34-3.91-.26-.18-.49-.39-.75-.57-1-.68-1.23-1.37-.32-2.39a13.8,13.8,0,0,0,1.44-2.43C8.83,30.91,7,29.83,5.13,28.71A15.25,15.25,0,0,1,0,24.53c2.18-1.46,4.31-2.81,6.36-4.26C11,17,15.64,13.82,20.09,10.36,27.39,4.67,35.4.85,44.76.2a1.58,1.58,0,0,0,.47-.2h4.62c.29.08.58.18.88.24,3.12.66,6.33,1.07,9.36,2a37.42,37.42,0,0,1,15.48,9.65,39.07,39.07,0,0,1,11,20.52c.39,2,.67,4.09,1,6.13ZM62.09,64.89c.5,1.24,1,2.5,1.5,3.71.93,2.07,1.92,4.11,2.88,6.16l.34-.16c-1.08-2.3-2.14-4.61-3.24-6.9-.45-1-1-1.85-1.51-2.78a8.69,8.69,0,0,0-.36-1.26c-1.13-2.45-2.3-4.89-3.42-7.34-.78-1.74-.68-2,1.12-2.71a11.23,11.23,0,0,0,6.22-5.12c1.56-3,2.48-6.17.93-9.46-2-4.33-6-5.34-10.23-4.25a4.29,4.29,0,0,0-1.23.86l.08.44c.61.09,1.23.24,1.84.27,2.46.1,5.17-.37,6.64,2.29a10.6,10.6,0,0,1,1.15,4c.24,2.59-1.14,4.61-2.63,6.61a9.63,9.63,0,0,1-12.46,2.63c0-.14.09-.35,0-.48-.24-.47-.54-.92-.82-1.37-.39.43-1,.82-1.12,1.3a2,2,0,0,0,1.51,2.41,15.46,15.46,0,0,0,5.39.91c2.12-.23,2.89.73,3.49,2.35,0,.12.07.26.13.38ZM44.22.55c.1.55.08.67.13.72.71.81,1.45,1.61,2.16,2.42,4.88,5.61,5.85,11.89,3.18,18.77a1.6,1.6,0,0,0,.18,1.7,9.54,9.54,0,0,1,1.29,2.92,9.89,9.89,0,0,1-.52,5.58,3.88,3.88,0,0,0,.09,1.42c.6-.23.84-.45,1-.72a9.08,9.08,0,0,0,0-8.81,3.09,3.09,0,0,1-.35-2.25,16.72,16.72,0,0,0,1.13-7.83c-.52-5.08-2.15-9.69-6.3-13A10.07,10.07,0,0,0,44.22.55Zm6.93.52a17.46,17.46,0,0,1,4.51,10.34c.17,2.54-.14,5.11-.17,7.67a4.82,4.82,0,0,0,.44,1.4,4.86,4.86,0,0,0,1.16-.86,3.09,3.09,0,0,0,.49-1.38A22,22,0,0,0,53.94,2.18,2.62,2.62,0,0,0,51.15,1.07Zm6.13,1c.73,1.58,1.55,3.09,2.14,4.68a19.38,19.38,0,0,1,.73,10.16c-.08.44.34,1,.53,1.47.39-.31,1-.54,1.13-.94a13.47,13.47,0,0,0,.6-3c.25-3-.67-5.73-1.63-8.44C60.16,4.28,59.75,2.22,57.28,2.1ZM35.57,36.46h-.13l-2,.72a11.91,11.91,0,0,1,1.79.53c.73.33,1.73.64,2,1.24s-.1,1.58-.35,2.34c-.12.39-.67.61-.9,1a5.06,5.06,0,0,0-.39,1.25,3.39,3.39,0,0,0,1.37.06,5,5,0,0,0,2.43-4.65C39.05,37.29,37.77,36.47,35.57,36.46Zm-.38-10.32c.24-.15.69-.27.87-.56.73-1.13.11-3.81-1-4.53-.23-.15-.76-.23-.83-.13a1.31,1.31,0,0,0-.17.95C34.36,23.24,34.76,24.59,35.19,26.14ZM41,19.73l-5-.66c0,1.21.51,1.64,2.53,2C39.68,21.3,40.65,21.26,41,19.73Zm-25.52,11a3.76,3.76,0,0,0-4.8-2.33C12.26,29.36,13.32,31,15.52,30.73Z" /></g></svg>